<svg version="1.1" id="Layer_1" xmlns="http://www.w3.org/2000/svg" xmlns:xlink="http://www.w3.org/1999/xlink" x="0px" y="0px"
	 width="100%" viewBox="0 0 512 512" enable-background="new 0 0 512 512" xml:space="preserve">
<path fill="#000000" opacity="1.000000" stroke="none" 
	d="
M307.000000,513.000000 
	C204.691513,513.000000 102.883018,513.000000 1.037265,513.000000 
	C1.037265,342.399811 1.037265,171.799637 1.037265,1.099719 
	C171.558502,1.099719 342.117065,1.099719 512.837830,1.099719 
	C512.837830,171.666534 512.837830,342.333252 512.837830,513.000000 
	C444.466278,513.000000 375.983124,513.000000 307.000000,513.000000 
M352.015472,208.992920 
	C340.877960,208.370300 330.780304,211.753967 321.020569,216.078888 
	C320.637634,209.665222 321.038452,203.087357 319.735107,196.866531 
	C314.315796,170.999939 301.080231,149.834381 280.111481,133.607864 
	C257.720886,116.281067 232.011749,111.110855 204.412415,113.095612 
	C201.246216,113.323303 198.145355,114.460007 194.211212,115.022690 
	C193.134186,115.332703 192.064835,115.672905 190.979034,115.948326 
	C160.585449,123.658272 138.600967,141.980728 123.971497,169.385880 
	C115.477005,185.298508 112.436577,202.383865 112.874191,220.402054 
	C113.278564,237.051361 117.423569,252.476456 124.804947,267.675568 
	C110.200920,276.828491 102.520645,290.866089 98.009590,305.802551 
	C90.650871,305.517944 83.958298,305.113739 77.261681,305.029205 
	C61.585667,304.831146 48.260201,311.115662 37.165848,321.522522 
	C19.533543,338.062195 13.509838,358.492340 17.870659,382.442810 
	C22.948935,410.333649 50.147419,433.507385 77.962379,433.034851 
	C89.283279,432.842560 100.610764,433.037567 111.993935,433.908173 
	C112.342590,437.312042 112.412437,440.772278 113.086922,444.110321 
	C116.461220,460.809784 124.515182,474.649994 138.380539,484.889282 
	C147.107544,491.334015 156.862244,496.574005 167.520798,496.746155 
	C204.665161,497.346100 241.826599,496.890594 279.910675,496.985687 
	C300.546295,496.990082 321.182098,497.038208 341.817352,496.953339 
	C345.044464,496.940094 348.345398,496.651825 351.482025,495.927246 
	C367.246521,492.285492 380.265076,484.067963 389.502258,470.807007 
	C404.348663,449.493500 405.631287,426.643158 394.512451,403.462677 
	C391.283478,396.730865 385.602814,391.175110 381.975128,385.008179 
	C398.962372,385.005432 415.956390,384.699799 432.934998,385.081085 
	C451.705109,385.502625 467.423950,378.870789 480.021912,365.316742 
	C496.449219,347.642761 501.080017,326.889618 495.179962,303.474548 
	C492.391205,292.406860 486.080078,283.607239 479.762024,274.782593 
	C490.915649,263.022339 497.566406,249.416199 497.403748,232.845535 
	C497.239685,216.135941 490.826965,202.245209 479.085510,191.004074 
	C482.463593,178.802078 482.270294,167.234665 475.816650,156.365189 
	C467.569916,142.475693 455.264343,136.625107 439.118591,136.845413 
	C421.877258,137.080673 406.836975,149.227280 402.211761,165.325577 
	C401.238495,168.712997 399.902008,169.038788 397.201477,169.030014 
	C392.887604,169.016006 388.439728,168.549255 384.281830,169.406128 
	C366.028778,173.167847 351.586823,190.193802 352.015472,208.992920 
M91.056358,124.314552 
	C93.345375,130.815720 95.634392,137.316895 97.834770,143.566330 
	C113.121506,128.281174 128.268814,113.135414 143.667313,97.738510 
	C121.081116,90.205040 98.272072,82.597244 74.757576,74.754143 
	C80.339539,91.506401 85.669785,107.503204 91.056358,124.314552 
M324.499908,133.000122 
	C327.943390,136.879150 331.386902,140.758194 335.644745,145.554596 
	C343.876251,120.857681 351.438629,98.168396 359.244324,74.748993 
	C335.704254,82.604790 312.908447,90.212212 289.497681,98.024864 
	C301.396698,109.914558 312.698334,121.207321 324.499908,133.000122 
M193.589340,81.000000 
	C211.989090,81.000000 230.388840,81.000000 249.502426,81.000000 
	C238.523163,59.061882 227.932419,37.900127 216.983322,16.022287 
	C205.937500,38.131344 195.386719,59.249516 184.520050,81.000000 
	C187.727264,81.000000 190.176254,81.000000 193.589340,81.000000 
M31.001661,209.497345 
	C26.294947,211.867569 21.588232,214.237793 16.056973,217.023239 
	C38.047394,228.014786 59.219181,238.597168 80.702591,249.335312 
	C80.702591,227.540924 80.702591,206.380630 80.702591,184.735168 
	C64.055977,192.982773 47.840446,201.016785 31.001661,209.497345 
z"/>
<path fill="#75E2FC" opacity="1.000000" stroke="none" 
	d="
M479.136871,275.028564 
	C486.080078,283.607239 492.391205,292.406860 495.179962,303.474548 
	C501.080017,326.889618 496.449219,347.642761 480.021912,365.316742 
	C467.423950,378.870789 451.705109,385.502625 432.934998,385.081085 
	C415.956390,384.699799 398.962372,385.005432 381.157837,384.983521 
	C369.902313,377.480927 358.520020,372.049194 345.942688,368.753906 
	C343.239685,364.399658 340.448456,360.482452 337.946350,356.388550 
	C323.616333,332.942017 318.160767,307.501251 322.264709,280.378845 
	C326.109741,254.967453 337.421234,233.079147 355.607849,214.786713 
	C357.125580,213.260132 357.872986,210.967636 359.392395,209.024170 
	C386.788544,212.972000 405.022797,227.839890 414.072845,253.457733 
	C415.701599,258.068146 417.481323,258.668030 421.684937,257.931610 
	C440.116913,254.702682 456.964691,258.679138 472.096405,269.741486 
	C474.465454,271.473450 476.791138,273.264709 479.136871,275.028564 
z"/>
<path fill="#AEF5FF" opacity="1.000000" stroke="none" 
	d="
M345.988037,369.109344 
	C358.520020,372.049194 369.902313,377.480927 380.693237,385.019562 
	C385.602814,391.175110 391.283478,396.730865 394.512451,403.462677 
	C405.631287,426.643158 404.348663,449.493500 389.502258,470.807007 
	C380.265076,484.067963 367.246521,492.285492 351.482025,495.927246 
	C348.345398,496.651825 345.044464,496.940094 341.817352,496.953339 
	C321.182098,497.038208 300.546295,496.990082 279.211487,496.685120 
	C273.610138,492.686737 268.305664,489.414459 263.871613,485.221680 
	C236.359375,459.206299 222.212738,427.818939 225.942001,389.353088 
	C227.596466,372.287933 233.228943,356.630676 242.503387,342.351624 
	C247.266525,335.018219 252.852493,328.219238 258.504089,321.131378 
	C263.042023,321.575531 267.249939,321.636597 271.225372,322.629059 
	C295.302979,328.640045 310.991821,343.709412 318.581268,367.264587 
	C319.268799,369.398438 319.414581,371.076080 322.719940,370.688843 
	C330.431793,369.785278 338.226746,369.590942 345.988037,369.109344 
z"/>
<path fill="#4FB5DC" opacity="1.000000" stroke="none" 
	d="
M111.935249,433.056335 
	C100.610764,433.037567 89.283279,432.842560 77.962379,433.034851 
	C50.147419,433.507385 22.948935,410.333649 17.870659,382.442810 
	C13.509838,358.492340 19.533543,338.062195 37.165848,321.522522 
	C48.260201,311.115662 61.585667,304.831146 77.261681,305.029205 
	C83.958298,305.113739 90.650871,305.517944 98.009590,305.802551 
	C102.520645,290.866089 110.200920,276.828491 125.341080,267.348999 
	C138.297577,259.871826 151.583054,256.148651 166.344269,257.089844 
	C170.405197,258.036255 174.170013,258.597107 177.823608,259.573944 
	C195.039841,264.177002 207.680435,274.792542 216.889648,290.011414 
	C215.990036,291.942963 215.092194,293.535309 214.395828,295.211365 
	C208.449615,309.523315 206.563187,324.069702 211.835800,339.303497 
	C207.096741,346.471466 202.302765,353.217957 198.034546,360.282135 
	C196.191528,363.332520 196.340958,368.694733 193.943680,370.006409 
	C191.275452,371.466309 186.750259,369.351257 183.012558,369.065887 
	C149.086990,366.475342 120.281021,388.514832 113.816795,421.975098 
	C113.106300,425.652740 112.558517,429.361847 111.935249,433.056335 
z"/>
<path fill="#F6B940" opacity="1.000000" stroke="none" 
	d="
M216.984848,289.710999 
	C207.680435,274.792542 195.039841,264.177002 177.823608,259.573944 
	C174.170013,258.597107 170.405197,258.036255 166.282059,256.748291 
	C155.540253,237.675644 150.652756,218.033905 151.845200,196.606720 
	C153.379623,169.034409 164.017532,145.882950 183.168396,126.375114 
	C186.972565,122.500031 191.058304,118.901367 195.014206,115.175247 
	C198.145355,114.460007 201.246216,113.323303 204.412415,113.095612 
	C232.011749,111.110855 257.720886,116.281067 280.111481,133.607864 
	C301.080231,149.834381 314.315796,170.999939 319.735107,196.866531 
	C321.038452,203.087357 320.637634,209.665222 320.934998,216.847443 
	C305.246429,227.399948 294.977203,241.140076 290.555786,259.202332 
	C288.868774,258.982483 287.538116,258.930511 286.268738,258.624512 
	C276.001892,256.149567 265.836456,256.733337 255.736084,259.543304 
	C238.685455,264.286835 226.202347,274.902863 216.984848,289.710999 
z"/>
<path fill="#95EBFC" opacity="1.000000" stroke="none" 
	d="
M111.964592,433.482239 
	C112.558517,429.361847 113.106300,425.652740 113.816795,421.975098 
	C120.281021,388.514832 149.086990,366.475342 183.012558,369.065887 
	C186.750259,369.351257 191.275452,371.466309 193.943680,370.006409 
	C196.340958,368.694733 196.191528,363.332520 198.034546,360.282135 
	C202.302765,353.217957 207.096741,346.471466 212.132538,339.146790 
	C225.536819,327.119598 240.420609,320.563751 258.066650,321.178772 
	C252.852493,328.219238 247.266525,335.018219 242.503387,342.351624 
	C233.228943,356.630676 227.596466,372.287933 225.942001,389.353088 
	C222.212738,427.818939 236.359375,459.206299 263.871613,485.221680 
	C268.305664,489.414459 273.610138,492.686737 278.746887,496.610413 
	C241.826599,496.890594 204.665161,497.346100 167.520798,496.746155 
	C156.862244,496.574005 147.107544,491.334015 138.380539,484.889282 
	C124.515182,474.649994 116.461220,460.809784 113.086922,444.110321 
	C112.412437,440.772278 112.342590,437.312042 111.964592,433.482239 
z"/>
<path fill="#95EBFC" opacity="1.000000" stroke="none" 
	d="
M479.449463,274.905579 
	C476.791138,273.264709 474.465454,271.473450 472.096405,269.741486 
	C456.964691,258.679138 440.116913,254.702682 421.684937,257.931610 
	C417.481323,258.668030 415.701599,258.068146 414.072845,253.457733 
	C405.022797,227.839890 386.788544,212.972000 358.960663,209.014404 
	C356.385620,208.987061 354.656372,208.962616 352.927155,208.938187 
	C351.586823,190.193802 366.028778,173.167847 384.281830,169.406128 
	C388.439728,168.549255 392.887604,169.016006 397.201477,169.030014 
	C399.902008,169.038788 401.238495,168.712997 402.211761,165.325577 
	C406.836975,149.227280 421.877258,137.080673 439.118591,136.845413 
	C455.264343,136.625107 467.569916,142.475693 475.816650,156.365189 
	C482.270294,167.234665 482.463593,178.802078 479.085510,191.004074 
	C490.826965,202.245209 497.239685,216.135941 497.403748,232.845535 
	C497.566406,249.416199 490.915649,263.022339 479.449463,274.905579 
z"/>
<path fill="#5ED3F2" opacity="1.000000" stroke="none" 
	d="
M352.471313,208.965546 
	C354.656372,208.962616 356.385620,208.987061 358.546570,209.021255 
	C357.872986,210.967636 357.125580,213.260132 355.607849,214.786713 
	C337.421234,233.079147 326.109741,254.967453 322.264709,280.378845 
	C318.160767,307.501251 323.616333,332.942017 337.946350,356.388550 
	C340.448456,360.482452 343.239685,364.399658 345.942688,368.753906 
	C338.226746,369.590942 330.431793,369.785278 322.719940,370.688843 
	C319.414581,371.076080 319.268799,369.398438 318.581268,367.264587 
	C310.991821,343.709412 295.302979,328.640045 271.225372,322.629059 
	C267.249939,321.636597 263.042023,321.575531 258.504089,321.131409 
	C240.420609,320.563751 225.536819,327.119598 212.290802,338.854187 
	C206.563187,324.069702 208.449615,309.523315 214.395828,295.211365 
	C215.092194,293.535309 215.990036,291.942963 216.889648,290.011414 
	C226.202347,274.902863 238.685455,264.286835 255.736084,259.543304 
	C265.836456,256.733337 276.001892,256.149567 286.268738,258.624512 
	C287.538116,258.930511 288.868774,258.982483 290.555786,259.202332 
	C294.977203,241.140076 305.246429,227.399948 321.007751,217.308060 
	C330.780304,211.753967 340.877960,208.370300 352.471313,208.965546 
z"/>
<path fill="#F4A93C" opacity="1.000000" stroke="none" 
	d="
M194.612701,115.098969 
	C191.058304,118.901367 186.972565,122.500031 183.168396,126.375114 
	C164.017532,145.882950 153.379623,169.034409 151.845200,196.606720 
	C150.652756,218.033905 155.540253,237.675644 165.934708,256.554382 
	C151.583054,256.148651 138.297577,259.871826 125.519684,267.048767 
	C117.423569,252.476456 113.278564,237.051361 112.874191,220.402054 
	C112.436577,202.383865 115.477005,185.298508 123.971497,169.385880 
	C138.600967,141.980728 160.585449,123.658272 190.979034,115.948326 
	C192.064835,115.672905 193.134186,115.332703 194.612701,115.098969 
z"/>
<path fill="#FAD85D" opacity="1.000000" stroke="none" 
	d="
M91.028191,123.907272 
	C85.669785,107.503204 80.339539,91.506401 74.757576,74.754143 
	C98.272072,82.597244 121.081116,90.205040 143.667313,97.738510 
	C128.268814,113.135414 113.121506,128.281174 97.834770,143.566330 
	C95.634392,137.316895 93.345375,130.815720 91.028191,123.907272 
z"/>
<path fill="#FAD85D" opacity="1.000000" stroke="none" 
	d="
M324.249939,132.750092 
	C312.698334,121.207321 301.396698,109.914558 289.497681,98.024864 
	C312.908447,90.212212 335.704254,82.604790 359.244324,74.748993 
	C351.438629,98.168396 343.876251,120.857681 335.644745,145.554596 
	C331.386902,140.758194 327.943390,136.879150 324.249939,132.750092 
z"/>
<path fill="#FAD85D" opacity="1.000000" stroke="none" 
	d="
M193.107300,81.000000 
	C190.176254,81.000000 187.727264,81.000000 184.520050,81.000000 
	C195.386719,59.249516 205.937500,38.131344 216.983322,16.022287 
	C227.932419,37.900127 238.523163,59.061882 249.502426,81.000000 
	C230.388840,81.000000 211.989090,81.000000 193.107300,81.000000 
z"/>
<path fill="#FAD85D" opacity="1.000000" stroke="none" 
	d="
M31.313290,209.274078 
	C47.840446,201.016785 64.055977,192.982773 80.702591,184.735168 
	C80.702591,206.380630 80.702591,227.540924 80.702591,249.335312 
	C59.219181,238.597168 38.047394,228.014786 16.056973,217.023239 
	C21.588232,214.237793 26.294947,211.867569 31.313290,209.274078 
z"/>
</svg>